<svg xmlns="http://www.w3.org/2000/svg" xmlns:xlink="http://www.w3.org/1999/xlink" width="500" zoomAndPan="magnify" viewBox="0 0 375 374.999991" height="500" preserveAspectRatio="xMidYMid meet" version="1.0"><path fill="#720000" d="M 253.257812 92.304688 L 265.738281 74.953125 L 302.828125 81.703125 L 292.449219 93.757812 C 288.597656 98.277344 281.71875 105.921875 274.660156 112.285156 C 276.292969 112.5625 277.929688 113.066406 279.382812 113.734375 C 283.757812 115.578125 287.316406 119.648438 289.066406 123.835938 L 291.164062 128.914062 L 282.824219 138.679688 L 283.117188 139.347656 L 275.652344 148.054688 L 276.234375 149.503906 L 267.722656 159.492188 L 268.246094 160.890625 L 259.324219 171.324219 L 259.789062 172.273438 C 268.070312 177.574219 278.570312 193.871094 283.351562 201.625 L 289.183594 211.226562 L 278.277344 214.964844 C 277.691406 215.1875 277.050781 215.464844 276.46875 215.800781 L 268.480469 233.492188 C 264.164062 242.976562 258.5625 251.90625 252.269531 260.332031 C 240.253906 276.460938 225.617188 291.082031 210.164062 304.25 C 202.875 310.5 195.292969 316.582031 187.304688 322.050781 L 181.703125 325.902344 L 176.105469 322.050781 C 168.117188 316.582031 160.59375 310.5 153.246094 304.25 C 137.792969 291.082031 123.15625 276.460938 111.140625 260.332031 C 104.84375 251.90625 99.246094 242.976562 94.929688 233.492188 L 86.941406 215.800781 C 86.355469 215.464844 85.714844 215.1875 85.132812 214.964844 L 74.226562 211.226562 L 80.117188 201.625 C 84.839844 193.871094 95.335938 177.574219 103.617188 172.273438 L 104.085938 171.324219 L 95.164062 160.890625 L 95.746094 159.492188 L 87.171875 149.503906 L 87.753906 148.054688 L 80.292969 139.347656 L 80.582031 138.679688 L 72.242188 128.914062 L 74.34375 123.835938 C 76.09375 119.648438 79.652344 115.578125 84.023438 113.734375 C 87.40625 112.285156 91.429688 111.390625 95.046875 112.5625 L 98.136719 113.566406 L 102.917969 120.207031 L 105.308594 123.667969 L 106.183594 123.945312 L 110.964844 130.644531 L 119.890625 143.644531 L 119.773438 143.644531 L 121.054688 145.488281 L 125.835938 152.183594 L 127.121094 154.082031 L 132.484375 133.824219 L 135.34375 141.972656 C 136.101562 139.40625 137.035156 136.894531 138.023438 134.4375 L 141.292969 126.511719 L 144.148438 127.351562 L 154.585938 113.175781 L 155.226562 112.785156 C 162.285156 108.378906 169.867188 104.582031 177.386719 100.957031 L 181.703125 98.835938 L 186.078125 100.957031 C 190.917969 103.300781 195.699219 105.753906 200.367188 108.320312 C 201.472656 108.878906 202.523438 109.492188 203.628906 110.109375 C 204.679688 106.816406 206.257812 103.46875 208.121094 100.675781 C 208.589844 99.953125 209.171875 99.226562 209.8125 98.554688 C 212.261719 96.042969 214.945312 94.761719 218.035156 93.253906 C 219.960938 92.363281 221.652344 91.414062 223.109375 90.074219 C 224.101562 88.847656 225.558594 83.710938 225.96875 82.09375 C 227.074219 77.628906 227.949219 72.996094 228.417969 68.421875 L 230.515625 49.167969 L 257.804688 75.285156 L 256.816406 80.140625 C 256 84.214844 254.773438 88.398438 253.257812 92.304688 Z M 258.683594 122.886719 C 254.015625 124.171875 248.941406 124.226562 244.101562 124.113281 C 241.886719 124.058594 239.613281 123.949219 237.398438 123.835938 C 236.054688 123.835938 233.371094 123.667969 231.972656 123.890625 C 229.117188 125.230469 226.027344 127.519531 223.398438 129.585938 L 225.382812 134.4375 C 226.433594 136.894531 227.308594 139.40625 228.066406 141.972656 L 230.921875 133.824219 L 236.289062 154.082031 L 237.628906 152.128906 L 242.351562 145.488281 L 243.636719 143.644531 L 243.519531 143.644531 L 252.5 130.585938 L 257.222656 123.949219 L 258.15625 123.667969 Z M 258.683594 122.886719 " fill-opacity="1" fill-rule="evenodd"/><path fill="#000000" d="M 242.238281 103.300781 C 245.386719 102.6875 248.476562 102.015625 251.566406 101.402344 L 267.546875 79.191406 L 295.421875 84.269531 L 289.355469 91.300781 C 283.117188 98.558594 266.84375 116.46875 257.921875 119.09375 C 253.667969 120.375 248.652344 120.433594 244.160156 120.320312 C 241.710938 120.265625 232.441406 119.59375 230.574219 120.265625 C 227.015625 121.882812 222.527344 125.289062 219.4375 127.6875 L 216.402344 130.085938 C 216.578125 130.757812 216.691406 131.425781 216.808594 132.09375 L 219.785156 131.203125 L 221.710938 135.890625 C 224.21875 142.027344 226.257812 149.671875 227.132812 156.871094 L 230.398438 147.441406 L 233.78125 160.277344 L 236.8125 160.277344 L 240.953125 154.25 L 244.917969 148.722656 L 244.976562 148.722656 L 248.941406 142.921875 L 249.816406 141.691406 L 249.699219 141.636719 L 255.824219 132.765625 L 259.789062 127.183594 L 260.722656 126.90625 L 263.871094 122.328125 L 267.839844 116.804688 L 269.644531 116.191406 C 272.210938 115.355469 275.359375 116.191406 277.808594 117.25 C 281.191406 118.644531 283.992188 122.050781 285.332031 125.289062 L 286.558594 128.246094 L 278.21875 137.953125 L 278.511719 138.679688 L 271.042969 147.386719 L 271.6875 148.78125 L 263.113281 158.824219 L 263.640625 160.164062 L 254.601562 170.710938 L 256.640625 174.953125 C 264.105469 178.746094 275.417969 196.269531 279.851562 203.578125 L 283.292969 209.160156 L 276.933594 211.394531 C 275.828125 211.78125 274.601562 212.339844 273.320312 213.125 L 264.804688 231.929688 C 260.605469 241.191406 255.125 249.898438 249 258.101562 C 237.222656 273.949219 222.699219 288.457031 207.480469 301.40625 C 200.425781 307.429688 192.726562 313.625 184.96875 318.929688 L 181.703125 321.214844 L 178.4375 318.929688 C 170.683594 313.625 162.984375 307.429688 155.929688 301.40625 C 140.765625 288.457031 126.1875 273.949219 114.40625 258.101562 C 108.285156 249.898438 102.800781 241.191406 98.660156 231.929688 L 90.089844 213.125 C 88.804688 212.339844 87.582031 211.78125 86.472656 211.394531 L 80.117188 209.160156 L 83.558594 203.578125 C 88.046875 196.269531 99.359375 178.746094 106.769531 174.953125 L 108.808594 170.710938 L 99.769531 160.164062 L 100.351562 158.824219 L 91.78125 148.78125 L 92.363281 147.386719 L 84.898438 138.679688 L 85.191406 137.953125 L 76.851562 128.246094 L 78.078125 125.289062 C 79.417969 122.050781 82.214844 118.644531 85.65625 117.25 C 88.046875 116.191406 91.199219 115.355469 93.820312 116.191406 L 95.628906 116.804688 L 99.535156 122.328125 L 102.683594 126.90625 L 103.675781 127.183594 L 107.640625 132.765625 L 113.707031 141.636719 L 113.589844 141.691406 L 114.464844 142.921875 L 118.488281 148.726562 L 122.453125 154.25 L 126.59375 160.277344 L 129.628906 160.277344 L 133.011719 147.441406 L 136.277344 156.871094 C 137.152344 149.671875 139.191406 142.027344 141.757812 135.890625 L 143.683594 131.203125 L 146.597656 132.09375 C 146.714844 131.425781 146.886719 130.753906 147.066406 130.085938 L 157.445312 115.96875 C 164.152344 111.78125 172.023438 107.820312 179.195312 104.359375 L 181.703125 103.132812 L 184.269531 104.359375 C 188.996094 106.703125 193.777344 109.105469 198.382812 111.671875 C 200.65625 112.898438 203.398438 114.347656 205.964844 115.96875 L 206.957031 112.675781 C 207.945312 109.382812 209.578125 105.644531 211.503906 102.742188 C 211.855469 102.183594 212.320312 101.683594 212.785156 101.179688 C 214.769531 99.058594 217.277344 97.941406 219.902344 96.714844 C 222.175781 95.597656 224.101562 94.484375 225.96875 92.753906 C 227.597656 91.191406 229.347656 85.164062 229.871094 82.988281 C 231.039062 78.410156 231.914062 73.5 232.441406 68.8125 L 233.664062 57.597656 L 253.492188 76.570312 L 252.910156 79.359375 C 251.917969 84.101562 250.34375 89.238281 248.417969 93.644531 C 246.960938 96.882812 244.976562 100.566406 242.238281 103.300781 Z M 242.238281 103.300781 " fill-opacity="1" fill-rule="evenodd"/><path fill="#1a1a1a" d="M 181.703125 184.328125 C 181.703125 184.328125 206.957031 168.253906 210.511719 158.265625 C 214.070312 148.277344 212.320312 128.242188 207.304688 123.667969 C 202.347656 119.148438 181.703125 109.214844 181.703125 109.214844 C 181.703125 109.214844 161.058594 119.148438 156.101562 123.667969 C 151.144531 128.242188 149.339844 148.277344 152.894531 158.265625 C 156.453125 168.253906 181.703125 184.328125 181.703125 184.328125 Z M 181.703125 184.328125 " fill-opacity="1" fill-rule="evenodd"/><path fill="#720000" d="M 181.703125 192.476562 C 181.703125 192.476562 213.371094 176.402344 216.460938 163.457031 C 219.496094 150.566406 216.460938 137.84375 216.460938 137.84375 C 216.460938 137.84375 222.351562 152.128906 221.886719 165.1875 C 221.417969 178.1875 181.703125 206.316406 181.703125 206.316406 C 181.703125 206.316406 141.992188 178.1875 141.523438 165.1875 C 141.058594 152.128906 147.007812 137.84375 147.007812 137.84375 C 147.007812 137.84375 143.914062 150.566406 147.007812 163.457031 C 150.039062 176.402344 181.703125 192.476562 181.703125 192.476562 Z M 181.703125 192.476562 " fill-opacity="1" fill-rule="evenodd"/><path fill="#ce0000" d="M 181.703125 192.476562 C 181.703125 192.476562 213.371094 176.402344 216.460938 163.457031 C 217.800781 157.765625 217.976562 152.074219 217.6875 147.496094 C 218.675781 151.738281 219.378906 156.648438 219.257812 161.390625 C 218.792969 173.558594 181.703125 199.785156 181.703125 199.785156 C 181.703125 199.785156 144.613281 173.558594 144.207031 161.390625 C 144.03125 156.648438 144.730469 151.738281 145.722656 147.496094 C 145.488281 152.074219 145.605469 157.765625 147.007812 163.457031 C 150.039062 176.402344 181.703125 192.476562 181.703125 192.476562 Z M 181.703125 192.476562 " fill-opacity="1" fill-rule="evenodd"/><path fill="#ff0000" d="M 195.410156 205.03125 L 200.65625 205.476562 C 200.65625 205.476562 206.257812 200.84375 208.296875 196.4375 C 208.296875 196.4375 202.058594 200.734375 200.308594 201.90625 C 198.558594 203.078125 195.410156 205.03125 195.410156 205.03125 Z M 195.410156 205.03125 " fill-opacity="1" fill-rule="evenodd"/><path fill="#1a1a1a" d="M 181.703125 210.5 C 181.703125 210.5 194.535156 215.578125 198.148438 214.910156 C 201.824219 214.238281 213.546875 202.183594 213.546875 202.183594 C 213.546875 202.183594 210.804688 211.617188 209.519531 214.964844 C 208.296875 218.3125 194.535156 238.902344 181.703125 238.011719 C 168.933594 238.902344 155.171875 218.3125 153.886719 214.964844 C 152.605469 211.617188 149.863281 202.183594 149.863281 202.183594 C 149.863281 202.183594 161.585938 214.238281 165.257812 214.910156 C 168.875 215.578125 181.703125 210.5 181.703125 210.5 Z M 181.703125 210.5 " fill-opacity="1" fill-rule="evenodd"/><path fill="#333333" d="M 181.703125 210.5 C 181.703125 210.5 194.535156 215.578125 198.148438 214.910156 C 199.78125 214.574219 203.046875 212.0625 206.078125 209.328125 C 205.671875 210.722656 205.207031 212.003906 204.914062 212.84375 C 203.867188 215.632812 192.375 232.820312 181.703125 232.039062 C 171.03125 232.820312 159.542969 215.632812 158.492188 212.84375 C 158.203125 212.003906 157.734375 210.722656 157.328125 209.328125 C 160.417969 212.0625 163.625 214.574219 165.257812 214.910156 C 168.875 215.578125 181.703125 210.5 181.703125 210.5 Z M 181.703125 210.5 " fill-opacity="1" fill-rule="evenodd"/><path fill="#720000" d="M 223.398438 178.078125 C 223.398438 178.078125 223.925781 193.253906 222.933594 197.105469 C 227.480469 193.199219 233.429688 180.753906 229.699219 166.636719 C 227.539062 172.71875 225.730469 174.503906 223.398438 178.078125 Z M 140.007812 178.078125 C 140.007812 178.078125 139.484375 193.253906 140.53125 197.105469 C 135.925781 193.199219 130.035156 180.753906 133.765625 166.636719 C 135.867188 172.71875 137.734375 174.503906 140.007812 178.078125 Z M 140.007812 178.078125 " fill-opacity="1" fill-rule="evenodd"/><path fill="#ae0000" d="M 223.398438 178.078125 C 223.398438 178.078125 223.636719 185.21875 223.457031 190.96875 C 225.847656 186.558594 227.65625 180.085938 226.898438 172.832031 C 225.792969 174.730469 224.683594 176.125 223.398438 178.078125 Z M 139.949219 190.96875 C 137.558594 186.558594 135.808594 180.085938 136.507812 172.832031 C 137.617188 174.730469 138.78125 176.125 140.007812 178.078125 C 140.007812 178.078125 139.773438 185.21875 139.949219 190.96875 Z M 139.949219 190.96875 " fill-opacity="1" fill-rule="evenodd"/><path fill="#1a1a1a" d="M 192.550781 265.300781 C 192.550781 265.300781 190.042969 254.417969 201.824219 244.261719 C 213.546875 234.050781 222.933594 209.328125 222.933594 209.328125 L 228.183594 205.476562 C 228.183594 205.476562 222 221.882812 237.511719 238.066406 C 237.511719 238.066406 222.175781 262.957031 213.546875 265.300781 C 204.972656 267.699219 192.550781 265.300781 192.550781 265.300781 Z M 192.550781 265.300781 " fill-opacity="1" fill-rule="evenodd"/><path fill="#333333" d="M 195 252.519531 C 196.457031 249.898438 198.617188 247.050781 201.824219 244.261719 C 213.546875 234.050781 222.933594 209.328125 222.933594 209.328125 L 227.480469 205.980469 C 227.539062 206.371094 227.597656 206.761719 227.714844 207.152344 C 226.78125 211.058594 225.5 221.160156 232.730469 232.097656 C 227.539062 239.628906 219.140625 250.621094 213.546875 252.128906 C 207.363281 253.859375 199.082031 253.078125 195 252.519531 Z M 195 252.519531 " fill-opacity="1" fill-rule="evenodd"/><path fill="#333333" d="M 181.703125 290.410156 C 181.703125 290.410156 194.648438 291.304688 199.257812 287.84375 C 203.921875 284.328125 213.371094 270.042969 213.371094 270.042969 C 206.605469 273.667969 192.316406 277.074219 181.703125 276.292969 C 171.089844 277.074219 156.804688 273.667969 150.039062 270.042969 C 150.039062 270.042969 159.542969 284.328125 164.152344 287.84375 C 168.757812 291.304688 181.703125 290.410156 181.703125 290.410156 Z M 181.703125 290.410156 " fill-opacity="1" fill-rule="evenodd"/><path fill="#1a1a1a" d="M 207.597656 272.496094 C 200.191406 275.0625 189.867188 276.90625 181.703125 276.292969 C 173.539062 276.90625 163.277344 275.0625 155.871094 272.496094 C 158.667969 276.292969 161.933594 280.367188 164.148438 282.039062 C 168.757812 285.5 181.703125 284.664062 181.703125 284.664062 C 181.703125 284.664062 194.648438 285.5 199.257812 282.039062 C 201.472656 280.367188 204.738281 276.292969 207.597656 272.496094 Z M 207.597656 272.496094 " fill-opacity="1" fill-rule="evenodd"/><path fill="#1a1a1a" d="M 232.964844 202.183594 C 232.964844 202.183594 232.671875 219.484375 235.121094 223.445312 C 237.511719 227.410156 242.9375 232.652344 242.9375 232.652344 C 242.9375 232.652344 263.171875 210.445312 275.011719 206.316406 C 275.011719 206.316406 260.898438 183.210938 253.960938 179.695312 C 247.078125 176.179688 240.3125 178.246094 240.3125 178.246094 C 240.3125 178.246094 240.019531 185.945312 238.796875 192.195312 C 237.511719 198.390625 232.964844 202.183594 232.964844 202.183594 Z M 232.964844 202.183594 " fill-opacity="1" fill-rule="evenodd"/><path fill="#333333" d="M 266.496094 193.476562 C 262.238281 187.507812 257.28125 181.371094 253.960938 179.695312 C 247.078125 176.179688 240.3125 178.246094 240.3125 178.246094 C 240.3125 178.246094 240.019531 185.945312 238.796875 192.195312 C 237.863281 196.714844 235.179688 199.953125 233.839844 201.402344 C 234.128906 203.355469 234.539062 204.976562 235.121094 205.867188 C 237.511719 209.828125 242.9375 215.019531 242.9375 215.019531 C 242.9375 215.019531 255.417969 201.347656 266.496094 193.476562 Z M 266.496094 193.476562 " fill-opacity="1" fill-rule="evenodd"/><path fill="#fea000" d="M 266.378906 128.46875 C 266.378906 128.46875 272.503906 130.585938 274.71875 133.601562 L 280.085938 127.296875 C 280.085938 127.296875 278.453125 123.390625 275.535156 122.160156 C 272.621094 120.933594 271.394531 121.324219 271.394531 121.324219 L 268.539062 125.398438 Z M 97.027344 128.46875 C 97.027344 128.46875 90.90625 130.585938 88.746094 133.601562 L 83.324219 127.296875 C 83.324219 127.296875 84.957031 123.390625 87.871094 122.160156 C 90.847656 120.933594 92.011719 121.324219 92.011719 121.324219 L 94.929688 125.398438 Z M 97.027344 128.46875 " fill-opacity="1" fill-rule="evenodd"/><path fill="#ffcc00" d="M 276.0625 122.441406 C 275.886719 122.328125 275.710938 122.21875 275.535156 122.160156 C 272.621094 120.933594 271.394531 121.324219 271.394531 121.324219 L 268.539062 125.398438 L 267.953125 126.179688 C 269.179688 126.90625 270.289062 127.796875 270.988281 128.746094 L 276.175781 122.664062 C 276.175781 122.664062 276.121094 122.550781 276.0625 122.441406 Z M 95.453125 126.179688 C 94.289062 126.90625 93.179688 127.796875 92.480469 128.746094 L 87.230469 122.664062 C 87.230469 122.664062 87.289062 122.550781 87.40625 122.441406 C 87.523438 122.328125 87.699219 122.21875 87.871094 122.160156 C 90.847656 120.933594 92.011719 121.324219 92.011719 121.324219 L 94.929688 125.398438 Z M 95.453125 126.179688 " fill-opacity="1" fill-rule="evenodd"/><path fill="#720000" d="M 213.835938 121.269531 C 213.835938 121.269531 224.042969 112.785156 227.132812 112.003906 C 230.226562 111.222656 254.949219 106.203125 254.949219 106.203125 L 270.113281 85.164062 L 285.042969 87.84375 C 285.042969 87.84375 264.6875 111.445312 256.234375 113.957031 C 247.835938 116.414062 232.789062 113.234375 228.125 115.410156 C 223.457031 117.585938 215.878906 123.5 215.878906 123.5 Z M 213.835938 121.269531 " fill-opacity="1" fill-rule="evenodd"/><path fill="#ce0000" d="M 231.738281 111 C 239.847656 109.269531 254.949219 106.203125 254.949219 106.203125 L 270.113281 85.164062 L 279.5 86.835938 C 273.960938 93.085938 259.730469 108.320312 253.082031 110.332031 C 247.25 112.003906 238.269531 111.058594 231.738281 111 Z M 231.738281 111 " fill-opacity="1" fill-rule="evenodd"/><path fill="#720000" d="M 212.378906 114.183594 C 212.378906 114.183594 225.96875 103.859375 234.480469 101.792969 C 242.992188 99.785156 247.367188 78.355469 247.367188 78.355469 L 238.039062 69.371094 C 238.039062 69.371094 235.589844 91.246094 229.875 96.601562 C 224.160156 101.90625 218.617188 102.128906 216.226562 105.644531 C 213.835938 109.214844 212.378906 114.183594 212.378906 114.183594 Z M 212.378906 114.183594 " fill-opacity="1" fill-rule="evenodd"/><path fill="#ce0000" d="M 237.398438 74.003906 C 236.347656 80.699219 233.957031 92.808594 229.871094 96.601562 C 224.160156 101.90625 218.617188 102.128906 216.226562 105.644531 C 215.527344 106.703125 214.886719 107.875 214.359375 108.992188 C 218.910156 106.089844 224.625 102.855469 229 101.792969 C 237.570312 99.785156 241.945312 78.355469 241.945312 78.355469 Z M 237.398438 74.003906 " fill-opacity="1" fill-rule="evenodd"/><path fill="#ff0000" d="M 168 205.03125 L 162.808594 205.476562 C 162.808594 205.476562 157.152344 200.84375 155.171875 196.4375 C 155.171875 196.4375 161.351562 200.734375 163.101562 201.90625 C 164.851562 203.078125 168 205.03125 168 205.03125 Z M 168 205.03125 " fill-opacity="1" fill-rule="evenodd"/><path fill="#1a1a1a" d="M 170.855469 265.300781 C 170.855469 265.300781 173.363281 254.417969 161.585938 244.261719 C 149.863281 234.050781 140.53125 209.328125 140.53125 209.328125 L 135.226562 205.476562 C 135.226562 205.476562 141.40625 221.882812 125.894531 238.066406 C 125.894531 238.066406 141.292969 262.957031 149.863281 265.300781 C 158.4375 267.699219 170.855469 265.300781 170.855469 265.300781 Z M 170.855469 265.300781 " fill-opacity="1" fill-rule="evenodd"/><path fill="#333333" d="M 168.40625 252.519531 C 166.949219 249.898438 164.851562 247.050781 161.585938 244.261719 C 149.863281 234.050781 140.53125 209.328125 140.53125 209.328125 L 135.925781 205.980469 C 135.867188 206.371094 135.808594 206.761719 135.691406 207.152344 C 136.625 211.058594 137.964844 221.160156 130.675781 232.097656 C 135.925781 239.628906 144.324219 250.621094 149.863281 252.128906 C 156.101562 253.859375 164.324219 253.078125 168.40625 252.519531 Z M 168.40625 252.519531 " fill-opacity="1" fill-rule="evenodd"/><path fill="#720000" d="M 181.703125 314.574219 C 181.703125 314.574219 124.4375 275.234375 103.792969 229.808594 C 103.792969 229.808594 112.015625 237.507812 118.957031 240.132812 C 125.894531 254.917969 155.636719 298.445312 181.703125 302.800781 C 207.769531 298.445312 237.511719 254.917969 244.453125 240.132812 C 251.390625 237.507812 259.613281 229.808594 259.613281 229.808594 C 239.03125 275.234375 181.703125 314.574219 181.703125 314.574219 Z M 181.703125 314.574219 " fill-opacity="1" fill-rule="evenodd"/><path fill="#ce0000" d="M 106.476562 232.152344 C 109.507812 234.605469 114.523438 238.402344 118.957031 240.132812 C 125.894531 254.917969 155.636719 298.449219 181.703125 302.800781 C 207.769531 298.449219 237.511719 254.917969 244.453125 240.132812 C 248.941406 238.402344 253.960938 234.605469 256.933594 232.152344 C 234.480469 275.234375 181.703125 311.394531 181.703125 311.394531 C 181.703125 311.394531 128.984375 275.234375 106.476562 232.152344 Z M 106.476562 232.152344 " fill-opacity="1" fill-rule="evenodd"/><path fill="#1a1a1a" d="M 130.445312 202.183594 C 130.445312 202.183594 130.734375 219.484375 128.34375 223.445312 C 125.894531 227.410156 120.53125 232.652344 120.53125 232.652344 C 120.53125 232.652344 100.234375 210.445312 88.398438 206.316406 C 88.398438 206.316406 102.511719 183.210938 109.449219 179.695312 C 116.332031 176.179688 123.097656 178.246094 123.097656 178.246094 C 123.097656 178.246094 123.445312 185.945312 124.671875 192.195312 C 125.894531 198.390625 130.445312 202.183594 130.445312 202.183594 Z M 130.445312 202.183594 " fill-opacity="1" fill-rule="evenodd"/><path fill="#333333" d="M 96.914062 193.476562 C 101.167969 187.507812 106.125 181.371094 109.449219 179.695312 C 116.332031 176.179688 123.097656 178.246094 123.097656 178.246094 C 123.097656 178.246094 123.445312 185.945312 124.671875 192.195312 C 125.546875 196.714844 128.230469 199.953125 129.628906 201.402344 C 129.277344 203.355469 128.871094 204.976562 128.34375 205.867188 C 125.894531 209.828125 120.53125 215.019531 120.53125 215.019531 C 120.53125 215.019531 108.050781 201.347656 96.914062 193.476562 Z M 96.914062 193.476562 " fill-opacity="1" fill-rule="evenodd"/><path fill="#1a1a1a" d="M 105.074219 138.902344 C 105.074219 138.902344 98.953125 140.96875 96.792969 144.039062 L 91.371094 137.730469 C 91.371094 137.730469 93.003906 133.824219 95.980469 132.597656 C 98.894531 131.367188 100.0625 131.761719 100.0625 131.761719 L 102.976562 135.777344 Z M 243.460938 160.386719 C 243.460938 160.386719 249.582031 162.507812 251.800781 165.519531 L 257.222656 159.214844 C 257.222656 159.214844 255.53125 155.308594 252.617188 154.082031 C 249.699219 152.855469 248.476562 153.246094 248.476562 153.246094 L 245.621094 157.316406 Z M 251.507812 149.003906 C 251.507812 149.003906 257.574219 151.125 259.789062 154.191406 L 265.214844 147.832031 C 265.214844 147.832031 263.523438 143.980469 260.605469 142.699219 C 257.691406 141.46875 256.523438 141.859375 256.523438 141.859375 L 253.609375 145.933594 Z M 258.332031 138.902344 C 258.332031 138.902344 264.453125 140.96875 266.613281 144.039062 L 272.039062 137.730469 C 272.039062 137.730469 270.402344 133.824219 267.488281 132.597656 C 264.570312 131.367188 263.347656 131.761719 263.347656 131.761719 L 260.429688 135.777344 Z M 237.746094 165.632812 L 240.253906 172.105469 L 249.058594 172.105469 C 249.058594 172.105469 246.960938 167.585938 244.570312 166.636719 C 242.179688 165.632812 237.746094 165.632812 237.746094 165.632812 Z M 125.660156 165.632812 L 123.15625 172.105469 L 114.347656 172.105469 C 114.347656 172.105469 116.507812 167.585938 118.839844 166.636719 C 121.230469 165.632812 125.660156 165.632812 125.660156 165.632812 Z M 119.945312 160.386719 C 119.945312 160.386719 113.824219 162.507812 111.664062 165.519531 L 106.242188 159.214844 C 106.242188 159.214844 107.875 155.308594 110.792969 154.082031 C 113.707031 152.855469 114.929688 153.246094 114.929688 153.246094 L 117.789062 157.316406 Z M 111.957031 149.003906 C 111.957031 149.003906 105.835938 151.125 103.617188 154.191406 L 98.253906 147.832031 C 98.253906 147.832031 99.886719 143.980469 102.800781 142.699219 C 105.71875 141.46875 106.941406 141.859375 106.941406 141.859375 L 109.800781 145.933594 Z M 111.957031 149.003906 " fill-opacity="1" fill-rule="evenodd"/><path fill="#4d4d4d" d="M 103.851562 139.347656 C 103.558594 139.515625 103.152344 139.628906 102.742188 139.851562 L 98.078125 134.382812 C 98.078125 134.382812 98.660156 132.988281 99.769531 131.703125 C 99.945312 131.703125 100.0625 131.761719 100.0625 131.761719 L 102.976562 135.777344 L 104.84375 138.511719 C 104.492188 138.789062 104.144531 139.070312 103.851562 139.347656 Z M 244.859375 158.433594 C 245.5 158.9375 246.144531 159.550781 246.550781 160.164062 L 251.566406 154.304688 C 251.566406 154.304688 251.449219 154.027344 251.277344 153.578125 C 249.292969 152.964844 248.476562 153.246094 248.476562 153.246094 L 245.621094 157.316406 Z M 252.269531 147.886719 C 252.910156 148.445312 253.550781 149.003906 253.960938 149.617188 L 258.972656 143.757812 C 258.972656 143.757812 258.625 142.921875 257.921875 141.914062 C 256.933594 141.75 256.523438 141.859375 256.523438 141.859375 L 253.609375 145.933594 Z M 258.5625 138.511719 C 258.914062 138.789062 259.265625 139.070312 259.558594 139.347656 C 259.90625 139.515625 260.257812 139.628906 260.664062 139.851562 L 265.332031 134.382812 C 265.332031 134.382812 264.746094 132.988281 263.699219 131.703125 C 263.464844 131.703125 263.347656 131.761719 263.347656 131.761719 L 260.429688 135.777344 Z M 237.980469 166.191406 L 243.171875 166.191406 C 240.777344 165.632812 237.746094 165.632812 237.746094 165.632812 Z M 125.429688 166.191406 L 120.238281 166.191406 C 122.628906 165.632812 125.660156 165.632812 125.660156 165.632812 Z M 118.605469 158.433594 C 117.90625 158.9375 117.265625 159.550781 116.855469 160.164062 L 111.839844 154.304688 C 111.839844 154.304688 111.957031 154.027344 112.191406 153.578125 C 114.113281 152.964844 114.929688 153.246094 114.929688 153.246094 L 117.789062 157.316406 Z M 111.199219 147.886719 C 110.5 148.445312 109.859375 149.003906 109.449219 149.617188 L 104.433594 143.757812 C 104.433594 143.757812 104.785156 142.921875 105.484375 141.914062 C 106.476562 141.75 106.941406 141.859375 106.941406 141.859375 L 109.800781 145.933594 Z M 111.199219 147.886719 " fill-opacity="1" fill-rule="evenodd"/><path fill="#720000" d="M 181.703125 245.042969 C 181.703125 245.042969 190.335938 243.480469 197.625 238.066406 C 197.625 238.066406 188.996094 256.371094 186.136719 258.097656 C 183.277344 259.773438 181.703125 263.066406 181.703125 263.066406 C 181.703125 263.066406 180.128906 259.773438 177.269531 258.097656 C 174.414062 256.371094 165.785156 238.066406 165.785156 238.066406 C 173.132812 243.480469 181.703125 245.042969 181.703125 245.042969 Z M 181.703125 245.042969 " fill-opacity="1" fill-rule="evenodd"/><path fill="#ce0000" d="M 181.703125 245.042969 C 181.703125 245.042969 186.253906 244.207031 191.558594 241.640625 C 189.460938 245.542969 187.304688 249.058594 186.136719 249.730469 C 183.277344 251.460938 181.703125 254.695312 181.703125 254.695312 C 181.703125 254.695312 180.128906 251.460938 177.273438 249.730469 C 176.105469 249.058594 173.949219 245.542969 171.847656 241.640625 C 177.15625 244.207031 181.703125 245.042969 181.703125 245.042969 Z M 181.703125 245.042969 " fill-opacity="1" fill-rule="evenodd"/><path fill="#333333" d="M 181.703125 164.183594 C 181.703125 164.183594 196.808594 154.585938 198.90625 148.613281 C 201.066406 142.699219 199.957031 130.699219 196.984375 128.019531 C 194.007812 125.289062 181.703125 119.316406 181.703125 119.316406 C 181.703125 119.316406 169.398438 125.289062 166.425781 128.019531 C 163.453125 130.699219 162.402344 142.699219 164.5 148.613281 C 166.601562 154.585938 181.703125 164.183594 181.703125 164.183594 Z M 181.703125 164.183594 " fill-opacity="1" fill-rule="evenodd"/></svg>